       <svg width="32" height="32" viewBox="0 0 24 24" fill="none" xmlns="http://www.w3.org/2000/svg">
          <path d="M7.5 7.5C7.5 5.25 9.25 3.5 11.5 3.5H12.5C14.75 3.5 16.5 5.25 16.5 7.5" stroke="#4F46E5" stroke-width="1.5" stroke-linecap="round" stroke-linejoin="round"/>
          <path d="M15.33 18.25C15.33 20.02 13.85 21.5 12 21.5C10.15 21.5 8.67 20.02 8.67 18.25C8.67 16.48 10.15 15 12 15C13.85 15 15.33 16.48 15.33 18.25Z" stroke="#4F46E5" stroke-width="1.5"/>
          <path d="M3.5 10.5L4.82 18.5C5.2 20.5 6 21.5 8.5 21.5H15.5C18 21.5 18.8 20.5 19.18 18.5L20.5 10.5H3.5Z" stroke="#4F46E5" stroke-width="1.5" stroke-linecap="round" stroke-linejoin="round"/>
        </svg>
